<?xml version="1.0" encoding="UTF-8"?>
<svg width="20" height="20" version="1.1" viewBox="0 0 20 20" xmlns="http://www.w3.org/2000/svg" xmlns:xlink="http://www.w3.org/1999/xlink">
 <defs>
  <linearGradient id="linearGradient-1" x1="94.975" x2="94.975" y1="14.561" y2="199.38" gradientTransform="matrix(13.354 0 0 13.346 5.2732e-6 -8.3388)" gradientUnits="userSpaceOnUse">
   <stop stop-color="#fff" stop-opacity="0" offset="0"/>
   <stop stop-color="#238B19" offset="1"/>
  </linearGradient>
  <path id="path-2" d="m95 15.643 17.825 2.9351c44.513 7.3296 77.175 45.809 77.175 90.922 0 45.113-32.662 83.592-77.175 90.922l-17.825 2.9351c-44.534 7.3331-86.581-22.824-93.914-67.359-.7227-4.389-1.0859-8.8296-1.0859-13.278v-26.441c0-45.134 36.588-81.722 81.722-81.722 4.4481 0 8.8887.36316 13.278 1.0859z"/>
  <linearGradient id="linearGradient-3" x1="190.89" x2="190.89" y1="89.996" y2="233.76" gradientTransform="matrix(13.462 0 0 13.238 -4754.8 -8.3388)" gradientUnits="userSpaceOnUse">
   <stop stop-color="#fff" stop-opacity=".5" offset="0"/>
   <stop stop-color="#56A0B0" offset="1"/>
  </linearGradient>
  <path id="path-4" d="m192.5 90.071 14.92 2.4175c34.344 5.5648 59.58 35.219 59.58 70.011s-25.236 64.446-59.58 70.011l-14.92 2.4175c-35.015 5.6736-68-18.112-73.673-53.127-.55036-3.3966-.82688-6.832-.82688-10.273v-18.057c0-35.472 28.755-64.227 64.227-64.227 3.4409 0 6.8763.27652 10.273.82688z"/>
 </defs>
 <g transform="matrix(.074906 0 0 .074906 -3.95e-7 .62464)" fill="none" fill-rule="evenodd" stroke-width="13.35">
  <use width="100%" height="100%" fill="#238b19" stroke-width="178.22" xlink:href="#path-2"/>
  <use width="100%" height="100%" fill="url(#linearGradient-1)" stroke-width="13.35" xlink:href="#path-2"/>
  <g transform="matrix(-1,0,0,1,385,0)">
   <use width="100%" height="100%" fill="#7db6c5" stroke-width="178.22" style="mix-blend-mode:soft-light" xlink:href="#path-4"/>
   <use width="100%" height="100%" fill="url(#linearGradient-3)" stroke-width="13.35" xlink:href="#path-4"/>
  </g>
 </g>
</svg>
