<?xml version="1.0" encoding="UTF-8"?>
<svg width="20" height="20" version="1.1" viewBox="0 0 20 20" xmlns="http://www.w3.org/2000/svg">
 <path d="m6.1211 1.7148c-3.3808 0-6.1211 2.7403-6.1211 6.1211v1.9805c0 0.33321 0.027897 0.66733 0.082031 0.99609 0.54929 3.3359 3.6973 5.5942 7.0332 5.0449l1.3359-0.2207c0.027812-0.0046 0.054343-0.01267 0.082031-0.01758-0.43214-0.85679-0.69336-1.8104-0.69336-2.8223-2e-7 -3.0897 2.2528-5.7363 5.3027-6.2305l0.66797-0.10938c-0.83517-2.2827-2.8431-4.0271-5.3594-4.4414l-1.3359-0.21875c-0.32878-0.054137-0.66095-0.082031-0.99414-0.082031zm9.0684 5.5938c-0.25774 0-0.5151 0.021275-0.76953 0.0625l-1.1172 0.18164c-2.5726 0.41684-4.4629 2.638-4.4629 5.2441 0 2.6061 1.8903 4.8273 4.4629 5.2441l1.1172 0.18164c2.6228 0.42499 5.0926-1.3576 5.5176-3.9805 0.04123-0.25443 0.0625-0.51178 0.0625-0.76953v-1.3516c0-2.6571-2.1535-4.8125-4.8105-4.8125z" fill="currentColor" fill-rule="evenodd"/>
</svg>
