<?xml version="1.0" encoding="UTF-8"?>
<svg width="20" height="20" version="1.1" viewBox="0 0 20 20" xmlns="http://www.w3.org/2000/svg">
 <path d="m6.123 1.7344c-3.3818 0-6.123 2.7412-6.123 6.123v1.9453c-9.2519e-18 0.33256 0.026163 0.66402 0.080078 0.99219 0.54827 3.3371 3.698 5.5971 7.0352 5.0488l1.3477-0.2207c0.35874-0.058944 0.70891-0.14498 1.0449-0.25586-0.42703-0.76656-0.66797-1.6467-0.66797-2.5762 0-2.6001 1.8864-4.8155 4.4531-5.2305l0.79688-0.12891c-0.56726-2.7412-2.7717-4.9274-5.627-5.3965l-1.3477-0.2207c-0.32816-0.053917-0.65963-0.080078-0.99219-0.080078zm7.9668 5.6973c0.093696 0.45279 0.14258 0.9205 0.14258 1.3984 0 3.0079-1.9428 5.6205-4.7246 6.5371 0.76756 1.3779 2.1359 2.3877 3.7852 2.6543l1.127 0.18164c2.6238 0.4242 5.0934-1.3586 5.5176-3.9824 0.04106-0.25396 0.0625-0.51031 0.0625-0.76758v-1.3242c0-2.6578-2.1547-4.8125-4.8125-4.8125-0.25726-3e-7 -0.51362 0.019483-0.76758 0.060547l-0.33008 0.054688z" fill="currentColor" fill-rule="evenodd"/>
</svg>
