<?xml version="1.0" encoding="UTF-8"?>
<svg width="256px" height="246px" viewBox="0 0 256 246" version="1.1" xmlns="http://www.w3.org/2000/svg" xmlns:xlink="http://www.w3.org/1999/xlink">
    <title>256x256</title>
    <defs>
        <linearGradient x1="50%" y1="0%" x2="50%" y2="97.2972973%" id="linearGradient-1">
            <stop stop-color="#FFFFFF" stop-opacity="0" offset="0%"></stop>
            <stop stop-color="#238B19" offset="100%"></stop>
        </linearGradient>
        <path d="M90.5,15 L107.009437,17.7363708 C149.696886,24.8116386 181,61.7301755 181,105 C181,148.269824 149.696886,185.188361 107.009437,192.263629 L90.5,195 C48.120611,202.024208 8.0710825,173.363171 1.04687438,130.983782 C0.350136264,126.780129 5.21822344e-16,122.526331 0,118.265328 L0,91.7346717 C-5.26078405e-15,48.77711 34.8239844,13.9531256 77.7815461,13.9531256 C82.0425489,13.9531256 86.2963467,14.3032619 90.5,15 Z" id="path-2"></path>
        <linearGradient x1="50%" y1="0%" x2="50%" y2="97.2972973%" id="linearGradient-3">
            <stop stop-color="#FFFFFF" stop-opacity="0" offset="0%"></stop>
            <stop stop-color="#56A0B0" offset="100%"></stop>
        </linearGradient>
        <path d="M184.5,86.5714286 L198.885976,88.8996285 C231.806613,94.2274438 256,122.651028 256,156 C256,189.348972 231.806613,217.772556 198.885976,223.100371 L184.5,225.428571 C150.888575,230.868183 119.231455,208.030415 113.791844,174.41899 C113.264798,171.162369 113,167.868697 113,164.569703 L113,147.430297 C113,113.381549 140.601964,85.7795847 174.650713,85.7795847 C177.949707,85.7795847 181.243378,86.0443829 184.5,86.5714286 Z" id="path-4"></path>
    </defs>
    <g id="256x256" stroke="none" stroke-width="1" fill="none" fill-rule="evenodd">
        <g transform="translate(0.000000, 5.000000)">
            <path d="M184.5,86.5714286 L198.885976,88.8996285 C231.806613,94.2274438 256,122.651028 256,156 C256,189.348972 231.806613,217.772556 198.885976,223.100371 L184.5,225.428571 C150.888575,230.868183 119.231455,208.030415 113.791844,174.41899 C113.264798,171.162369 113,167.868697 113,164.569703 L113,147.430297 C113,113.381549 140.601964,85.7795847 174.650713,85.7795847 C177.949707,85.7795847 181.243378,86.0443829 184.5,86.5714286 Z" id="Rectangle-Copy-74" fill="#7DB6C5" opacity="0.2" transform="translate(184.500000, 156.000000) scale(-1, 1) translate(-184.500000, -156.000000) "></path>
            <g id="Rectangle-Copy-75">
                <use fill="#238B19" xlink:href="#path-2"></use>
                <use fill="url(#linearGradient-1)" xlink:href="#path-2"></use>
            </g>
            <g id="Rectangle-Copy-76" transform="translate(184.500000, 156.000000) scale(-1, 1) translate(-184.500000, -156.000000) ">
                <use fill="#7DB6C5" style="mix-blend-mode: soft-light;" xlink:href="#path-4"></use>
                <use fill="url(#linearGradient-3)" xlink:href="#path-4"></use>
            </g>
        </g>
    </g>
</svg>